<mxfile host="app.diagrams.net" modified="2023-09-14T18:02:49.467Z" agent="Mozilla/5.0 (Windows NT 10.0; Win64; x64) AppleWebKit/537.36 (KHTML, like Gecko) Chrome/116.0.0.0 Safari/537.36" etag="M4QzrpfIYCiyRj_hdS3r" version="21.7.4" type="github">
  <diagram name="Página-1" id="TZ3f_hgAcB-hFsxnta8x">
    <mxGraphModel dx="1050" dy="575" grid="1" gridSize="10" guides="1" tooltips="1" connect="1" arrows="1" fold="1" page="1" pageScale="1" pageWidth="827" pageHeight="1169" math="0" shadow="0">
      <root>
        <mxCell id="0" />
        <mxCell id="1" parent="0" />
        <mxCell id="g5gKXTB8JtjFxRYUG6Kn-1" value="Entrar no Sistema" style="swimlane;horizontal=0;whiteSpace=wrap;html=1;" vertex="1" parent="1">
          <mxGeometry width="820" height="400" as="geometry" />
        </mxCell>
        <mxCell id="g5gKXTB8JtjFxRYUG6Kn-8" style="edgeStyle=orthogonalEdgeStyle;rounded=0;orthogonalLoop=1;jettySize=auto;html=1;entryX=0;entryY=0.5;entryDx=0;entryDy=0;entryPerimeter=0;" edge="1" parent="g5gKXTB8JtjFxRYUG6Kn-1" source="g5gKXTB8JtjFxRYUG6Kn-5" target="g5gKXTB8JtjFxRYUG6Kn-9">
          <mxGeometry relative="1" as="geometry">
            <mxPoint x="180" y="145" as="targetPoint" />
          </mxGeometry>
        </mxCell>
        <mxCell id="g5gKXTB8JtjFxRYUG6Kn-5" value="" style="strokeWidth=2;html=1;shape=mxgraph.flowchart.start_2;whiteSpace=wrap;" vertex="1" parent="g5gKXTB8JtjFxRYUG6Kn-1">
          <mxGeometry x="80" y="175" width="50" height="50" as="geometry" />
        </mxCell>
        <mxCell id="g5gKXTB8JtjFxRYUG6Kn-10" style="edgeStyle=orthogonalEdgeStyle;rounded=0;orthogonalLoop=1;jettySize=auto;html=1;entryX=0;entryY=0.5;entryDx=0;entryDy=0;exitX=0.5;exitY=0;exitDx=0;exitDy=0;exitPerimeter=0;" edge="1" parent="g5gKXTB8JtjFxRYUG6Kn-1" source="g5gKXTB8JtjFxRYUG6Kn-9" target="g5gKXTB8JtjFxRYUG6Kn-14">
          <mxGeometry relative="1" as="geometry">
            <mxPoint x="380" y="145" as="targetPoint" />
          </mxGeometry>
        </mxCell>
        <mxCell id="g5gKXTB8JtjFxRYUG6Kn-11" value="não" style="edgeLabel;html=1;align=center;verticalAlign=middle;resizable=0;points=[];" vertex="1" connectable="0" parent="g5gKXTB8JtjFxRYUG6Kn-10">
          <mxGeometry x="-0.035" y="4" relative="1" as="geometry">
            <mxPoint x="-1" y="-6" as="offset" />
          </mxGeometry>
        </mxCell>
        <mxCell id="g5gKXTB8JtjFxRYUG6Kn-12" style="edgeStyle=orthogonalEdgeStyle;rounded=0;orthogonalLoop=1;jettySize=auto;html=1;entryX=0;entryY=0.5;entryDx=0;entryDy=0;" edge="1" parent="g5gKXTB8JtjFxRYUG6Kn-1" source="g5gKXTB8JtjFxRYUG6Kn-9" target="g5gKXTB8JtjFxRYUG6Kn-26">
          <mxGeometry relative="1" as="geometry">
            <mxPoint x="380" y="320" as="targetPoint" />
            <Array as="points">
              <mxPoint x="230" y="320" />
            </Array>
          </mxGeometry>
        </mxCell>
        <mxCell id="g5gKXTB8JtjFxRYUG6Kn-13" value="sim" style="edgeLabel;html=1;align=center;verticalAlign=middle;resizable=0;points=[];" vertex="1" connectable="0" parent="g5gKXTB8JtjFxRYUG6Kn-12">
          <mxGeometry x="0.5602" y="-3" relative="1" as="geometry">
            <mxPoint x="-67" y="-13" as="offset" />
          </mxGeometry>
        </mxCell>
        <mxCell id="g5gKXTB8JtjFxRYUG6Kn-9" value="Verificar se é o primeiro acesso" style="strokeWidth=2;html=1;shape=mxgraph.flowchart.decision;whiteSpace=wrap;" vertex="1" parent="g5gKXTB8JtjFxRYUG6Kn-1">
          <mxGeometry x="180" y="150" width="100" height="100" as="geometry" />
        </mxCell>
        <mxCell id="g5gKXTB8JtjFxRYUG6Kn-14" value="Mostrar a Tela de Login" style="rounded=1;whiteSpace=wrap;html=1;absoluteArcSize=1;arcSize=14;strokeWidth=2;" vertex="1" parent="g5gKXTB8JtjFxRYUG6Kn-1">
          <mxGeometry x="400" y="40" width="100" height="100" as="geometry" />
        </mxCell>
        <mxCell id="g5gKXTB8JtjFxRYUG6Kn-15" value="Evento Inicial" style="text;html=1;align=center;verticalAlign=middle;resizable=0;points=[];autosize=1;strokeColor=none;fillColor=none;" vertex="1" parent="g5gKXTB8JtjFxRYUG6Kn-1">
          <mxGeometry x="60" y="225" width="90" height="30" as="geometry" />
        </mxCell>
        <mxCell id="g5gKXTB8JtjFxRYUG6Kn-26" value="Mostrar a Tela de Cadastro de Conta" style="rounded=1;whiteSpace=wrap;html=1;absoluteArcSize=1;arcSize=14;strokeWidth=2;" vertex="1" parent="g5gKXTB8JtjFxRYUG6Kn-1">
          <mxGeometry x="400" y="270" width="100" height="100" as="geometry" />
        </mxCell>
        <mxCell id="g5gKXTB8JtjFxRYUG6Kn-35" value="Realizar Cadastro de Conta" style="swimlane;horizontal=0;whiteSpace=wrap;html=1;" vertex="1" parent="1">
          <mxGeometry y="430" width="820" height="400" as="geometry" />
        </mxCell>
        <mxCell id="g5gKXTB8JtjFxRYUG6Kn-37" value="" style="strokeWidth=2;html=1;shape=mxgraph.flowchart.start_2;whiteSpace=wrap;" vertex="1" parent="g5gKXTB8JtjFxRYUG6Kn-35">
          <mxGeometry x="80" y="175" width="50" height="50" as="geometry" />
        </mxCell>
        <mxCell id="g5gKXTB8JtjFxRYUG6Kn-45" value="Evento Inicial" style="text;html=1;align=center;verticalAlign=middle;resizable=0;points=[];autosize=1;strokeColor=none;fillColor=none;" vertex="1" parent="g5gKXTB8JtjFxRYUG6Kn-35">
          <mxGeometry x="60" y="225" width="90" height="30" as="geometry" />
        </mxCell>
      </root>
    </mxGraphModel>
  </diagram>
</mxfile>
